# xmcd
#
# Track frame offsets: 
#        150
#        12567
#        25856
#        40663
#        55938
#        70704
#        83066
#        95655
#        111975
#        127732
#        142598
#        155861
#        169271
#        182650
#        196111
#        207703
#        221701
#        237129
#        250621
#        264417
#        278713
#        291704
#        304203
#        318467
#        333674
#        347562
#
# Disc length: 4797 seconds
#
# Revision: 6
# Processed by: cddbd v1.5.2PL0 Copyright (c) Steve Scherf et al.
# Submitted via: ExactAudioCopyFreeDBPlugin 1.0
#
DISCID=8412bb1a
DTITLE=The Carter Family - In The Shadow Of Clinch Mountain - Vol. 02
DYEAR=2000
DGENRE=Bluegrass
TTITLE0=Don't Forget This Song
TTITLE1=Foggy Mountain Top
TTITLE2=Bring Back My Blue Eyed Boy To Me
TTITLE3=Diamonds In The Rough
TTITLE4=Engine 143
TTITLE5=The Homestead On The Farm
TTITLE6=The Cyclone Of Rye Cove
TTITLE7=Motherless Children
TTITLE8=When The Roses Bloom In Dixieland
TTITLE9=No Telephone In Heaven
TTITLE10=Western Hobo
TTITLE11=Carter's Blues
TTITLE12=Wabash Cannonball
TTITLE13=A Distant Land To Roam
TTITLE14=Jimmie Brown The Newsboy
TTITLE15=Kitty Waltz
TTITLE16=Fond Affection
TTITLE17=The Cannonball
TTITLE18=The Lover's Farewell
TTITLE19=There's Someone Awaiting For Me
TTITLE20=The Little Log Hut In The Lane
TTITLE21=When The Springtime Comes Again
TTITLE22=When The World's On Fire
TTITLE23=I Have An Aged Mother
TTITLE24=Dying Soldier
TTITLE25=Worried Man Blues
EXTD=Bear Family CD 15865 LK YEAR: 2001
EXTT0=15-FEB-1929, Camden
EXTT1=15-FEB-1929, Camden
EXTT2=15-FEB-1929, Camden
EXTT3=15-FEB-1929, Camden
EXTT4=15-FEB-1929, Camden
EXTT5=22-NOV-1929, Atlanta
EXTT6=22-NOV-1929, Atlanta
EXTT7=22-NOV-1929, Atlanta
EXTT8=24-NOV-1929, Atlanta
EXTT9=24-NOV-1929, Atlanta
EXTT10=24-NOV-1929, Atlanta
EXTT11=24-NOV-1929, Atlanta
EXTT12=24-NOV-1929, Atlanta
EXTT13=25-NOV-1929, Atlanta
EXTT14=25-NOV-1929, Atlanta
EXTT15=25-NOV-1929, Atlanta
EXTT16=25-NOV-1929, Atlanta
EXTT17=24-MAY-1930, Memphis
EXTT18=24-MAY-1930, Memphis
EXTT19=24-MAY-1930, Memphis
EXTT20=24-MAY-1930, Memphis
EXTT21=24-MAY-1930, Memphis
EXTT22=24-MAY-1930, Memphis
EXTT23=24-MAY-1930, Memphis
EXTT24=24-MAY-1930, Memphis
EXTT25=24-MAY-1930, Memphis
PLAYORDER=
